<svg xmlns="http://www.w3.org/2000/svg" width="59" height="39" viewBox="0 0 59 39">
    <g fill="none" fill-rule="evenodd">
        <path fill="#E4E4E3" d="M58.25 35.75c0 1.1-.9 2-2 2h-53c-1.1 0-2-.9-2-2v-33c0-1.1.9-2 2-2h53c1.1 0 2 .9 2 2v33"/>
        <path stroke="#06C" d="M58.25 35.75c0 1.1-.9 2-2 2h-53c-1.1 0-2-.9-2-2v-33c0-1.1.9-2 2-2h53c1.1 0 2 .9 2 2v33z"/>
        <path fill="#E4E4E3" d="M58.25 35.75c0 1.1-.9 2-2 2h-53c-1.1 0-2-.9-2-2v-33c0-1.1.9-2 2-2h53c1.1 0 2 .9 2 2v33"/>
        <path fill="#06C" d="M47.453 27.656l.03-.021s2.504-2.71 2.608-3.849l.278-3.379a2.169 2.169 0 0 0 .308-2.381c.316-1.396.138-1.886.686-3.707.147-.487.096-1.515-.08-1.992-.178-.486-.655-.815-.848-1.295-.406-1.004.273-1.973-.194-2.951-.218-.457-.705-.732-1.197-.867-.491-.136-1.007-.16-1.505-.273-1.236-.28-2.036-1.329-3.303-1.405-1.965-.119-3.654 1.689-5.621 1.605-1.319-.056-2.539.659-3.172 1.143-.281.215-.451.541-.611.856-.806 1.588-.169 2.795-.792 4.146-.751 1.628.333 2.754.825 4.266a2.17 2.17 0 0 0 .398 3.22l.254 3.077c.099 1.102 2.367 3.69 2.367 3.69.02.017.042.031.063.047-.923 1.473-2.468 2.471-4.209 2.743-7.271 1.14-9.029 2.835-9.832 5.354l-.658 2.067H56.32c1.1 0 2-.9 2-2v-3.297c-1.301-.917-3.369-1.735-6.848-2.246a5.796 5.796 0 0 1-4.019-2.551"/>
        <path fill="#252525" d="M5.227 6.775h21.861v-2H5.227zM5.227 10.775h21.861v-2H5.227zM5.227 14.775h21.861v-2H5.227z"/>
    </g>
</svg>
