<svg xmlns="http://www.w3.org/2000/svg" width="43" height="58" viewBox="0 0 43 58">
    <g fill="none" fill-rule="evenodd">
        <path fill="#CBCCCB" d="M42.65 55.926c0 1.1-.9 2-2 2H2.85c-1.1 0-2-.9-2-2v-53c0-1.1.9-2 2-2h37.8c1.1 0 2 .9 2 2v53"/>
        <path fill="#9E9F9E" d="M3.7 54.601h36.1v-47.5H3.7z"/>
        <path fill="#FFFFFE" d="M4.65 53.651h34.2v-45.6H4.65z"/>
        <path fill="#252525" d="M12.2 9.771h19.101V4.037H12.2z"/>
        <path fill="#D3D3CD" d="M15.285 43.494l3.185-3.185a1.58 1.58 0 0 0-2.233-2.234l-3.186 3.186-3.185-3.186a1.58 1.58 0 1 0-2.234 2.234l3.186 3.185-3.186 3.186a1.58 1.58 0 0 0 2.234 2.233l3.185-3.185 3.186 3.185a1.57 1.57 0 0 0 1.116.463 1.578 1.578 0 0 0 1.117-2.696l-3.185-3.186M32.441 20.069l3.186-3.186a1.578 1.578 0 1 0-2.233-2.233l-3.186 3.186-3.186-3.186a1.578 1.578 0 1 0-2.233 2.233l3.187 3.186-3.187 3.186a1.58 1.58 0 0 0 2.233 2.233l3.186-3.186 3.186 3.186a1.57 1.57 0 0 0 1.117.462 1.578 1.578 0 0 0 1.116-2.695l-3.186-3.186M18.751 19.304l-4.655-4.655a1.577 1.577 0 0 0-2.229 0l-.002.003-.004.003-4.509 4.51a1.574 1.574 0 0 0 1.114 2.69 1.57 1.57 0 0 0 1.114-.462l3.401-3.401 3.541 3.541a1.574 1.574 0 0 0 2.229 0 1.577 1.577 0 0 0 0-2.229M29.345 39.064a3.57 3.57 0 0 0-3.567 3.566 3.57 3.57 0 0 0 3.567 3.566 3.569 3.569 0 0 0 3.565-3.566 3.57 3.57 0 0 0-3.565-3.566zm0 10.312a6.753 6.753 0 0 1-6.746-6.746 6.752 6.752 0 0 1 6.746-6.745 6.752 6.752 0 0 1 6.745 6.745 6.753 6.753 0 0 1-6.745 6.746z"/>
        <path fill="#D3D3CD" d="M30.917 38.433h-3.18v-5.167a1.83 1.83 0 0 0-1.828-1.828h-9.515a5.014 5.014 0 0 1-5.009-5.008v-9.695h3.18v9.695a1.83 1.83 0 0 0 1.829 1.828h9.515a5.014 5.014 0 0 1 5.008 5.008v5.167"/>
    </g>
</svg>
