<?xml version="1.0" encoding="UTF-8"?>
<svg width="301px" height="370px" viewBox="0 0 301 370" version="1.1" xmlns="http://www.w3.org/2000/svg" xmlns:xlink="http://www.w3.org/1999/xlink">
    <!-- Generator: Sketch 53.2 (72643) - https://sketchapp.com -->
    <title>laptop</title>
    <desc>Created with Sketch.</desc>
    <g id="PATTERNFLY" stroke="none" stroke-width="1" fill="none" fill-rule="evenodd">
        <g id="4-Desktop-HOME-PAGE" transform="translate(-888.000000, -1057.000000)">
            <g id="WHY-PF4" transform="translate(845.000000, 1057.000000)">
                <g id="laptop" transform="translate(43.488000, 0.000000)">
                    <g id="Group-25" transform="translate(119.512000, 0.000000)">
                        <polyline id="Fill-22" fill="#B2B3AF" points="177.786 96.018 171.739 99.35 171.739 252.26 177.786 248.928 177.786 96.018"></polyline>
                        <polyline id="Fill-24" fill="#ECEDE8" points="0.415 3.781 171.739 99.35 177.786 96.018 6.462 0.449 0.415 3.781"></polyline>
                    </g>
                    <polyline id="Fill-1" fill="#A6B1B4" points="300.316 302.206 183.277 369.779 16.078 273.246 133.117 205.674 300.316 302.206"></polyline>
                    <polyline id="Fill-26" fill="#DADAD3" points="171.324 324.64 -5.68434189e-14 229.071 -5.68434189e-14 223.589 171.324 319.158 171.324 324.64"></polyline>
                    <polyline id="Fill-27" fill="#B2B3AF" points="297.298 248.277 297.298 253.759 171.324 324.64 171.324 319.158 297.298 248.277"></polyline>
                    <polyline id="Fill-28" fill="#DADAD3" points="119.927 156.691 119.927 3.781 291.251 99.35 291.251 252.26 119.927 156.691"></polyline>
                    <polyline id="Fill-29" fill="#0D1313" points="125.248 154.91 125.248 11.498 285.93 101.131 285.93 244.543 125.248 154.91"></polyline>
                    <polyline id="Fill-30" fill="#ECEDE8" points="291.251 252.26 171.324 319.158 -5.68434189e-14 223.589 119.927 156.691 291.251 252.26"></polyline>
                    <polyline id="Fill-31" fill="#97CBE6" points="82.113 202.291 203.301 269.952 191.644 276.455 70.456 208.794 82.113 202.291"></polyline>
                    <polyline id="Fill-32" fill="#97CBE6" points="69.493 209.331 190.681 276.992 179.026 283.493 57.838 215.832 69.493 209.331"></polyline>
                    <polyline id="Fill-33" fill="#97CBE6" points="119.966 181.176 241.154 248.837 229.501 255.338 108.312 187.676 119.966 181.176"></polyline>
                    <polyline id="Fill-34" fill="#97CBE6" points="94.729 195.254 215.918 262.915 204.265 269.415 83.076 201.754 94.729 195.254"></polyline>
                    <polyline id="Fill-35" fill="#97CBE6" points="132.58 174.139 253.774 241.797 242.118 248.3 120.93 180.638 132.58 174.139"></polyline>
                    <polyline id="Fill-36" fill="#97CBE6" points="107.349 188.214 228.537 255.875 216.881 262.377 95.692 194.716 107.349 188.214"></polyline>
                    <polyline id="Fill-37" fill="#97CBE6" points="134.991 262.821 109.075 277.278 72.05 256.625 97.967 242.168 134.991 262.821"></polyline>
                    <polyline id="Fill-38" fill="#323431" points="285.93 221.207 285.93 244.543 125.248 155.617 125.248 42.7 285.93 221.207"></polyline>
                </g>
            </g>
        </g>
    </g>
</svg>