<svg xmlns="http://www.w3.org/2000/svg" width="58" height="45" viewBox="0 0 58 45">
    <defs>
        <path id="a" d="M.06.886H67.5V68H.06z"/>
    </defs>
    <g fill="none" fill-rule="evenodd">
        <path fill="#E4E4E3" d="M57.948 42.38c0 1.099-.9 2-2 2h-53c-1.1 0-2-.901-2-2V2.143c0-1.1.9-2 2-2h53c1.1 0 2 .9 2 2V42.38"/>
        <path fill="#252525" d="M55.948.143h-53c-1.1 0-2 .9-2 2v4h57v-4c0-1.1-.9-2-2-2"/>
        <path fill="#FFFFFE" d="M51.415 3.143a1.174 1.174 0 1 1-2.349.001 1.174 1.174 0 0 1 2.349-.001M55.175 3.143a1.175 1.175 0 1 1-2.35 0 1.175 1.175 0 0 1 2.35 0M4.448 22.068h50v-12h-50zM4.448 39.875h12v-14h-12zM20.448 39.875h12v-14h-12z"/>
        <path fill="#B4B5B4" d="M36.448 28.176h18v-2h-18zM36.448 34.176h18v-2h-18zM36.448 40.176h18v-2h-18z"/>
    </g>
</svg>
