<svg xmlns="http://www.w3.org/2000/svg" width="52" height="43" viewBox="0 0 52 43">
    <g fill="none" fill-rule="evenodd">
        <path fill="#B4B5B4" d="M1.024 12.209h50v-12h-50z"/>
        <path fill="#06C" d="M.962 42.336h42v-8.023h-42zM.962 30.015h12V16.016h-12zM17.024 30.015h12V16.016h-12z"/>
        <path fill="#252525" d="M33.023 18.317h18v-2h-18zM33.023 24.317h18v-2h-18zM33.023 30.317h18v-2h-18z"/>
        <path fill="#06C" d="M49.485 37.661a1.539 1.539 0 1 1 .001-3.077 1.539 1.539 0 0 1-.001 3.077M49.485 42.584a1.539 1.539 0 1 1 .001-3.077 1.539 1.539 0 0 1-.001 3.077"/>
    </g>
</svg>
